<svg width="36" height="36" viewBox="0 0 36 36" fill="none" xmlns="http://www.w3.org/2000/svg">
<path d="M22.4764 2.97345C22.4255 2.97464 22.3747 2.97833 22.3241 2.9847C21.9555 3.02962 21.6167 3.20961 21.3732 3.48989C21.1297 3.77018 20.9988 4.13096 21.0057 4.50219V31.4991C21.0077 31.8041 21.1026 32.1012 21.2778 32.3509C21.453 32.6006 21.7001 32.7909 21.9862 32.8966C22.2723 33.0022 22.5838 33.0183 22.8792 32.9424C23.1746 32.8665 23.4398 32.7023 23.6395 32.4718L32.6425 21.9748C32.7704 21.8249 32.8676 21.6513 32.9284 21.4639C32.9893 21.2765 33.0126 21.079 32.9971 20.8825C32.9816 20.6861 32.9276 20.4946 32.8381 20.319C32.7486 20.1435 32.6254 19.9875 32.4755 19.8595C32.3257 19.7316 32.1521 19.6344 31.9647 19.5735C31.7773 19.5127 31.5797 19.4893 31.3833 19.5048C31.1869 19.5204 30.9954 19.5745 30.8199 19.664C30.6443 19.7535 30.4882 19.8766 30.3602 20.0265L23.994 27.4444V4.50219C23.9976 4.30152 23.9608 4.10206 23.8859 3.91585C23.811 3.72965 23.6995 3.56043 23.5579 3.41809C23.4164 3.27576 23.2478 3.16328 23.062 3.08729C22.8763 3.01131 22.6771 2.97334 22.4764 2.9757L22.4764 2.97345ZM13.453 3.00736C13.2441 3.01319 13.0388 3.0627 12.8501 3.15252C12.6614 3.24234 12.4935 3.37054 12.3573 3.52899L3.3661 14.026C3.22021 14.1722 3.10608 14.3469 3.03084 14.5392C2.9556 14.7315 2.92088 14.9374 2.92885 15.1437C2.93682 15.3501 2.98731 15.5526 3.07716 15.7385C3.167 15.9245 3.29427 16.0897 3.45099 16.2242C3.60771 16.3587 3.79051 16.4595 3.98794 16.52C4.18537 16.5806 4.39318 16.5997 4.59835 16.5763C4.80352 16.5528 5.00163 16.4871 5.18029 16.3835C5.35895 16.2799 5.51429 16.1407 5.6366 15.9743L12.0028 8.55623V31.4988C11.9984 31.6986 12.0339 31.8972 12.1073 32.0831C12.1807 32.2689 12.2905 32.4383 12.4302 32.5812C12.5699 32.724 12.7368 32.8374 12.921 32.9149C13.1052 32.9924 13.303 33.0324 13.5028 33.0324C13.7026 33.0324 13.9005 32.9924 14.0847 32.9149C14.2689 32.8374 14.4357 32.724 14.5754 32.5812C14.7152 32.4383 14.8249 32.2689 14.8983 32.0831C14.9717 31.8972 15.0072 31.6986 15.0028 31.4988V4.50167C15.0021 4.30093 14.9611 4.10237 14.8823 3.91775C14.8035 3.73314 14.6884 3.56607 14.5439 3.42674C14.3993 3.28741 14.2283 3.17853 14.041 3.1065C13.8536 3.03447 13.6536 3.00089 13.453 3.00753V3.00736Z" fill="#F66F4D"/>
</svg>
