<svg width="24" height="24" viewBox="0 0 24 24" fill="none" xmlns="http://www.w3.org/2000/svg">
<g clip-path="url(#clip0_24_24)">
<path d="M9.65925 19.3102C11.8044 19.3102 13.8882 18.5945 15.5806 17.2764L21.9653 23.6611C22.4423 24.1218 23.2023 24.1086 23.663 23.6316C24.1123 23.1663 24.1123 22.4287 23.663 21.9635L17.2782 15.5787C20.5491 11.3682 19.7874 5.3033 15.5769 2.0324C11.3663 -1.23851 5.30149 -0.476829 2.03058 3.73371C-1.24033 7.94425 -0.478646 14.0091 3.73189 17.2801C5.42702 18.5969 7.51269 19.3113 9.65925 19.3102ZM4.52915 4.52727C7.36245 1.69391 11.9561 1.69386 14.7895 4.52717C17.6229 7.36047 17.6229 11.9542 14.7896 14.7875C11.9563 17.6209 7.36261 17.6209 4.52925 14.7876C4.5292 14.7876 4.5292 14.7876 4.52915 14.7875C1.69584 11.9749 1.67915 7.39791 4.49181 4.56461C4.50424 4.55213 4.51667 4.5397 4.52915 4.52727Z" fill="#717579"/>
</g>
<defs>
<clipPath id="clip0_24_24">
<rect width="24" height="24" fill="white"/>
</clipPath>
</defs>
</svg>
