<svg width="57" height="57" viewBox="0 0 57 57" fill="none" xmlns="http://www.w3.org/2000/svg">
<rect width="57" height="57" rx="14" fill="#FFD482"/>
<path d="M23.6299 14.5V27.0615L33.8652 14.6816L34.0146 14.5H42.7295L42.0312 15.3232L29.6963 29.8691L42.3799 44.6748L43.0869 45.5H34.0156L33.8662 45.3193L23.6299 33.0156V45.5H16.5V14.5H23.6299Z" fill="#2D3134" stroke="#2D3134"/>
<path d="M39.7751 28C40.2964 28 40.9428 28.2478 41.2615 28.8936L43.5554 33.5439L48.6873 34.29H48.6882C49.273 34.3754 49.7651 34.764 49.9851 35.3057L50.0251 35.416L50.0574 35.5303C50.1994 36.1009 50.0274 36.7027 49.6091 37.1133L49.6062 37.1152L45.8923 40.7334L46.7703 45.8467V45.8477C46.8761 46.4678 46.621 47.0939 46.1121 47.4648L46.113 47.4658C45.8222 47.6781 45.4783 47.7831 45.1375 47.7832C44.8741 47.7832 44.6078 47.7208 44.365 47.5928V47.5918L39.7751 45.1787L35.1843 47.5928L35.1833 47.5918C34.6255 47.8856 33.9486 47.8377 33.4382 47.4648V47.4639C32.9299 47.0929 32.6752 46.4665 32.781 45.8467L33.657 40.7334L29.9441 37.1152L29.9431 37.1143C29.4949 36.6759 29.3295 36.018 29.5261 35.416L29.5662 35.3057C29.7858 34.7659 30.2763 34.3756 30.8621 34.29H30.863L35.9949 33.5439L38.2898 28.8936C38.6085 28.248 39.254 28.0001 39.7751 28Z" fill="url(#paint0_linear_8_15)" stroke="#FFD482" stroke-width="2"/>
<defs>
<linearGradient id="paint0_linear_8_15" x1="39.7753" y1="29" x2="39.7753" y2="46.7835" gradientUnits="userSpaceOnUse">
<stop stop-color="#FF9D43"/>
<stop offset="1" stop-color="#F66F4D"/>
</linearGradient>
</defs>
</svg>
