<svg width="24" height="24" viewBox="0 0 24 24" fill="none" xmlns="http://www.w3.org/2000/svg">
<path d="M5.95877 7.49768C5.76855 7.50276 5.58372 7.56194 5.42599 7.66839C5.26826 7.77484 5.14417 7.9241 5.06829 8.09861C4.99242 8.27312 4.9679 8.46568 4.99763 8.65364C5.02736 8.8416 5.11009 9.01718 5.23612 9.15976L11.2303 16.1656C11.3241 16.2757 11.4408 16.364 11.5721 16.4246C11.7035 16.4852 11.8464 16.5165 11.991 16.5165C12.1356 16.5165 12.2785 16.4852 12.4099 16.4246C12.5412 16.364 12.6579 16.2757 12.7517 16.1656L18.7517 9.15976C18.8425 9.06081 18.9125 8.94457 18.9574 8.818C19.0023 8.69143 19.0212 8.55712 19.0131 8.42307C19.005 8.28902 18.9699 8.15793 18.9101 8.03771C18.8502 7.9175 18.7667 7.81066 18.6646 7.72341C18.5625 7.63615 18.4439 7.57029 18.3159 7.52986C18.1878 7.48944 18.0529 7.47527 17.9192 7.48811C17.7855 7.50095 17.6558 7.54054 17.5378 7.6046C17.4197 7.66866 17.3158 7.7558 17.2322 7.86089L11.99 13.98L6.74979 7.86089C6.65383 7.74466 6.53284 7.6517 6.39587 7.5888C6.25889 7.52591 6.10947 7.4947 5.95877 7.49768Z" fill="#C1C1C1"/>
</svg>
